<mxfile host="app.diagrams.net" modified="2023-06-17T02:02:35.920Z" agent="Mozilla/5.0 (Windows NT 10.0; Win64; x64) AppleWebKit/537.36 (KHTML, like Gecko) Chrome/114.0.0.0 Safari/537.36 Edg/114.0.1823.51" version="21.3.8" etag="aowMVY3teyWi5Wr7kLaK" type="github">
  <diagram name="Page-1" id="_hclj0jHglMXEvYCJp4P">
    <mxGraphModel>
      <root>
        <mxCell id="0" />
        <mxCell id="1" parent="0" />
      </root>
    </mxGraphModel>
  </diagram>
</mxfile>
